name 900006_30rea_lsw
datacolumns 54
datarows 8
range 1.0100000000000000 1.0729999999999993
cursor 1.0 1.0 0.0
keys m_key
wrap
enforce_loops no
enforce_constraints no
calc_derivatives 0.009000
event_color 1.000000 0.000000 1.000000
endheader

time	calcn_r_tx	calcn_r_ty	calcn_r_tz	calcn_r_r1	calcn_r_r2	calcn_r_r3	calcn_l_tx	calcn_l_ty	calcn_l_tz	calcn_l_r1	calcn_l_r2	calcn_l_r3	pelvis_tz	pelvis_tx	pelvis_ty	pelvis_tilt	pelvis_list	pelvis_rotation	hip_flexion_r	hip_adduction_r	hip_rotation_r	knee_angle_r	ankle_angle_r	subtalar_angle_r	mtp_angle_r	hip_flexion_l	hip_adduction_l	hip_rotation_l	knee_angle_l	ankle_angle_l	subtalar_angle_l	mtp_angle_l	lumbar_extension	lumbar_bending	lumbar_rotation	ground_force_px	ground_force_py	ground_force_pz	ground_force_vx	ground_force_vy	ground_force_vz	ground_force_px	ground_force_py	ground_force_pz	ground_force_vx	ground_force_vy	ground_force_vz	ground_torque_x	ground_torque_y	ground_torque_z	ground_torque_x	ground_torque_y	ground_torque_z	
      1.0100000000000000	      1.2924647154373150	      0.0315123629669517	     -0.1400098955715260	     -0.1178395556554775	      3.3744097333243519	      6.5310539237409451	      0.7295081672267492	      0.1228274410644806	     -0.2592278172643397	     -1.7138644235895513	      4.7934564438725626	    -34.2616672088670670	     -0.2321647871855387	      1.2003803528522261	      0.8007874562617547	      3.3212504238168861	     -3.7186584181233107	      2.1223675009042737	     22.2793747307865750	      3.8180574828756093	     -0.4145618947046084	    -17.8282542724461950	     -1.0789756160110544	      0.0000000000000000	      0.0000000000000000	    -23.5426934236395940	     -0.7050662139385342	     -4.5287779397311159	    -19.3178454105481950	      5.5114938783656280	      0.0000000000000000	      0.0000000000000000	    -11.2246982997909000	      8.3373759419827778	     -3.4917252624095130	      1.3219767974296572	      0.0000000000000000	     -0.1541511255536023	    -61.0448099679460730	    345.3172077241476400	     -9.4595135491719571	      0.8743370395596732	      0.0000000000000000	     -0.2477612689185645	     58.9200795994869610	    189.4315792718591100	    -11.7178547175565870	      0.0000000000000000	     -0.7675753738905455	      0.0000000000000000	      0.0000000000000000	      0.0461274871060116	      0.0000000000000000	
      1.0189999999999999	      1.2933807265821040	      0.0328778965906261	     -0.1391574804116630	     -0.1463575965068423	      3.9698690789660533	      5.1068347414156028	      0.7407442911851510	      0.1342877085148924	     -0.2612974360934094	     -1.8340460938736434	      4.6547546027309874	    -38.9594999624175100	     -0.2314321435471849	      1.2138168282911534	      0.8038273274022494	      3.5484164062782626	     -4.0554412117072323	      1.9711031086659789	     21.2971600368127840	      4.3910112306458080	      0.1950043034752483	    -18.2804514114282920	     -1.2918751014435985	      0.0000000000000000	      0.0000000000000000	    -22.6430607631153260	     -1.1464247899895184	     -4.0653108820313326	    -22.3286258331978970	      2.6235351154906206	      0.0000000000000000	      0.0000000000000000	    -11.6269563820572050	      8.8601510447672283	     -3.3357164780600757	      1.3244705801833085	      0.0000000000000000	     -0.1532125505819948	    -57.2700936356464610	    352.0993098951136600	    -13.5929832885479310	      0.8759842633671314	      0.0000000000000000	     -0.2473850784748777	     41.2108721871706510	    121.2420232072673700	    -11.4789506566638640	      0.0000000000000000	     -0.6908126490602226	      0.0000000000000000	      0.0000000000000000	     -0.0232067274177952	      0.0000000000000000	
      1.0279999999999998	      1.2942239717699400	      0.0341095711600006	     -0.1386498819899713	     -0.1239802960549987	      4.3807184646776660	      3.9499561919752701	      0.7539787796772268	      0.1455448560618617	     -0.2635040060223164	     -1.8663595151439287	      4.5815628685653600	    -43.6741141652665310	     -0.2307533926152139	      1.2270402662101203	      0.8069137013644426	      3.7446623389610716	     -4.3271384127941284	      1.8481136383047034	     20.2495829058270720	      4.8746734388847575	      0.6603131469241014	    -18.5540897182935150	     -1.3188251750849385	      0.0000000000000000	      0.0000000000000000	    -21.5031224927742070	     -1.5295371742969985	     -3.5857561163103200	    -25.4562703584444140	     -0.3689967631274399	      0.0000000000000000	      0.0000000000000000	    -12.0190589599904810	      9.2912967328266696	     -3.1897125191574909	      1.3278955410657278	      0.0000000000000000	     -0.1521925145904462	    -54.1181737968025730	    362.8371288014309400	    -17.0191293647923770	      0.8776658179135106	      0.0000000000000000	     -0.2470678106127661	     22.9306924810101410	     63.7548248418441690	     -8.3800314708775296	      0.0000000000000000	     -0.6478191965978387	      0.0000000000000000	      0.0000000000000000	     -0.0465872293869135	      0.0000000000000000	
      1.0369999999999997	      1.2950242213997811	      0.0351014812726292	     -0.1385825084993309	     -0.0442669909468384	      4.5656365135585322	      3.0317414947639034	      0.7691425902323642	      0.1562293924649167	     -0.2655737712697025	     -1.7887786186040828	      4.6078434520290799	    -48.1614467927790460	     -0.2301264214333847	      1.2400102986358599	      0.8099175183103642	      3.8923255536318369	     -4.5076355457579336	      1.7603406113023645	     19.1729386348021830	      5.2329288751571941	      0.9318106353533024	    -18.6649359755722340	     -1.1905993875402381	      0.0000000000000000	      0.0000000000000000	    -20.1210750832235590	     -1.8363127687972154	     -3.1627517257490765	    -28.6567586672761330	     -3.2448591506412572	      0.0000000000000000	      0.0000000000000000	    -12.3799398769928550	      9.5952471224426858	     -3.0760507730956528	      1.3321941475045795	      0.0000000000000000	     -0.1512515148236656	    -51.5031747054567220	    373.4130214605285700	    -18.8905113118045630	      0.8792906829137891	      0.0000000000000000	     -0.2466847451748737	      8.3283276298802402	     24.8563274520332800	     -4.2402409255859901	      0.0000000000000000	     -0.6876314706838397	      0.0000000000000000	      0.0000000000000000	     -0.0449878399060430	      0.0000000000000000	
      1.0459999999999996	      1.2957661983237976	      0.0358147077124078	     -0.1389749237778059	      0.0899776670562998	      4.5089490794884348	      2.3065047989512779	      0.7860408161451994	      0.1660362835321577	     -0.2672606899023241	     -1.6073339525500592	      4.7471236884783714	    -52.1825420536790930	     -0.2295303413196829	      1.2527017736652106	      0.8127468714052624	      3.9771711531794947	     -4.5829776716420936	      1.7075739434691679	     18.1026634462063710	      5.4479073320674978	      0.9861086130807956	    -18.6420499284792700	     -0.9449032683743573	      0.0000000000000000	      0.0000000000000000	    -18.5047618817473240	     -2.0601567138970016	     -2.8552731543709724	    -31.8868965968737540	     -5.7825691778822135	      0.0000000000000000	      0.0000000000000000	    -12.6924423940805420	      9.7486157596025400	     -3.0049772048712500	      1.3371547154083079	      0.0000000000000000	     -0.1505445892578055	    -48.9896355415274910	    381.8409929373962700	    -19.1665667021379490	      0.8809151810903106	      0.0000000000000000	     -0.2461868192081979	      0.9641751490936030	      4.8347295252045308	     -1.0122682362574622	      0.0000000000000000	     -0.7793130841860692	      0.0000000000000000	      0.0000000000000000	     -0.0202909307295238	      0.0000000000000000	
      1.0549999999999995	      1.2964334096908439	      0.0362729787605984	     -0.1397668336483993	      0.2661315361262462	      4.2234123586956880	      1.7242654151206629	      0.8044154445956449	      0.1747368495142451	     -0.2684217249177506	     -1.3562480036358322	      4.9854341917172933	    -55.5288077410512530	     -0.2289416391874560	      1.2651133489885229	      0.8153536230561448	      3.9921549239818392	     -4.5538309469095202	      1.6824146153841959	     17.0663319949916570	      5.5214076624108372	      0.8313349889857596	    -18.5189356522170490	     -0.6198255427763781	      0.0000000000000000	      0.0000000000000000	    -16.6746729807008370	     -2.2043444599336497	     -2.6945151162443119	    -35.1022031707240960	     -7.7886416600146298	      0.0000000000000000	      0.0000000000000000	    -12.9466786259161940	      9.7477213198780408	     -2.9750219145381953	      1.3425112151735235	      0.0000000000000000	     -0.1500701610644508	    -46.4002299274293720	    388.5972856169938200	    -18.8644934392409630	      0.8825853649650161	      0.0000000000000000	     -0.2456223047345115	     -0.3349564044180826	     -0.7712081683830693	      0.1573557676068624	      0.0000000000000000	     -0.8406920172992762	      0.0000000000000000	      0.0000000000000000	      0.0009998799644970	      0.0000000000000000	
      1.0639999999999994	      1.2970264246586227	      0.0365439044013797	     -0.1408437664196104	      0.4645984381814494	      3.7501739036321600	      1.2400131741077631	      0.8240048694624020	      0.1821711470104635	     -0.2690542339704683	     -1.0889907004080561	      5.2812258866155819	    -58.0435632265536870	     -0.2283483137624941	      1.2772632084543298	      0.8177312726107693	      3.9394515995920503	     -4.4347106086354495	      1.6733220892257352	     16.0783322977872340	      5.4732774284416248	      0.5065264307956618	    -18.3250834411553640	     -0.2493442347469773	      0.0000000000000000	      0.0000000000000000	    -14.6641153462350500	     -2.2788411884032334	     -2.6767634135359839	    -38.2552157681045490	     -9.1231470763174993	      0.0000000000000000	      0.0000000000000000	    -13.1430236792304030	      9.6105851434315817	     -2.9759864698201302	      1.3479958023655638	      0.0000000000000000	     -0.1496933613247150	    -43.6790990736315830	    394.1195416702821600	    -19.1655913856786380	      0.8842937830023026	      0.0000000000000000	     -0.2450458193794364	      0.0284124893325795	     -0.1527862978310304	      0.0509141234686527	      0.0000000000000000	     -0.8345349308454209	      0.0000000000000000	      0.0000000000000000	      0.0017191076491119	      0.0000000000000000	
      1.0729999999999993	      1.2975520488213921	      0.0367080386950784	     -0.1420689106670708	      0.6636095243015415	      3.1541623342756706	      0.8188624471737843	      0.8445823843180359	      0.1882283091265844	     -0.2692866383335084	     -0.8627115739736584	      5.5731977905856498	    -59.6375554102992780	     -0.2277531981042440	      1.2891802640037699	      0.8199000854748749	      3.8291037876110794	     -4.2503925526356046	      1.6695576252767239	     15.1378137393387200	      5.3368287068584124	      0.0742131635477765	    -18.0794538344827450	      0.1398060812949079	      0.0000000000000000	      0.0000000000000000	    -12.5155475081805210	     -2.2975135548823480	     -2.7654570970823174	    -41.2952803603867120	     -9.7178757499146844	      0.0000000000000000	      0.0000000000000000	    -13.2908814707308310	      9.3714812776683818	     -2.9903379192595381	      1.3535070050868823	      0.0000000000000000	     -0.1492729623462764	    -40.8343734981219130	    397.2739081228151600	    -20.5539276507747030	      0.8860510728274162	      0.0000000000000000	     -0.2444933148302002	      0.0627123608487817	      0.1864514540473755	     -0.0376974113890534	      0.0000000000000000	     -0.7895075701485077	      0.0000000000000000	      0.0000000000000000	     -0.0004521292978815	      0.0000000000000000	
